<svg xmlns="http://www.w3.org/2000/svg" xmlns:v="https://vecta.io/nano" width="1201" height="367" fill="#9c0b0b"><path d="M72.735 162.098h-4.973c-1.243.701-2.487 1.403-3.108 2.105h-6.839c-2.487-2.105 1.244-2.105 1.865-3.509v-4.21c-1.865-2.105-3.108-2.105-7.46.702-3.108-2.105-6.217-3.509-9.325-5.614.0-2.105.0-3.509 3.108-3.509.622.702.622 1.404 1.243 2.106h9.946c.622-.702 2.487-1.404 3.108-2.106 1.865-2.807 3.73-4.912 5.595-7.719-1.865-2.806-6.838-2.105-8.703-4.21-.622-.702-4.352.0-5.595.0l-3.73 2.105c-6.217-2.105-3.73-9.824-13.055-9.122-1.243 1.403-1.865 3.509-3.108 4.912-3.108-1.403-1.244-3.509-1.865-5.614-1.243-.702-2.486-2.105-4.351-3.508-2.487.0-4.973-.702-7.46-.702-2.487-1.404-.622-3.509-1.243-5.614 1.865-.702 3.73-.702 6.217-1.403l11.812-9.123c2.487.702 3.73-.701 5.595-1.403 1.243-.702 3.73-.702 5.595-1.404v-2.806c2.487-.702 4.973-2.106 8.081-2.807 1.865.701 3.73 1.403 6.217 2.105 1.243-2.105 2.486-3.509 3.73-5.614l3.73 2.105c1.243-2.105 2.487-4.21 4.352-6.315-.622-.702-1.865-1.403-3.108-2.105 2.487-2.105 4.973-4.912 8.082-5.614S82.06 81.4 89.52 78.593c2.487-1.403.622.0.0 1.404s-3.73.702-4.352 2.807c2.487 2.105 5.595 1.404 8.703.702 1.243-2.105 1.865-4.21 4.351-5.614-.622.0-1.865-.702-8.703.702-3.73.0-3.73-2.807-3.73-5.614 6.838-1.403 9.947-5.614 14.92-8.421h3.73c1.244-1.404 3.73-2.807 4.352-4.21.622-2.105 3.108-2.807 4.973-4.912 1.865.0 4.352.702 6.217.0 3.73-1.404 6.838-2.807 11.19-4.912h6.217c1.865-2.105 3.73-4.21 6.216-6.315 8.082-2.807 17.407-6.315 26.732-9.824.621.702 1.865 1.403 3.108 2.105 5.595.702 6.217-3.509 10.568-4.912 3.109-.702 6.838-2.105 9.947-2.807.0-.702.621-2.105.621-3.509 3.109-2.807 5.595.0 8.082 1.403h22.38c.621.0.621-.702 1.865-1.403v-7.017c3.108-2.105 5.595-.702 8.081-.702s5.596-.702 8.082.702c-1.243 1.404-1.865 2.807-3.108 3.509v1.403c3.73 1.404 3.73 1.403 8.081-.702h9.325l3.73-2.105c1.243.702 3.109 1.403 4.352 2.105 3.73.0 4.973-2.105 7.46-3.509-1.865-.702-2.487-.702-3.73-1.403-.622.0-1.865-.702-2.487-.702l.622-.702c5.595.0 11.811-.702 17.406-.702 1.244-.702 2.487-1.403 4.352-2.807 1.865.702 3.73 1.403 5.595 2.807 1.865.0 2.487-3.508 6.217-2.105 1.865.702 1.865 2.105 1.243 4.21-3.73 1.403-8.082.0-12.433.702h-12.433c0 1.404-.622 2.807-.622 3.509 3.108 1.404 5.595.702 8.081.702.622-.702 1.244-1.403 2.487-1.403 4.352-1.404 7.46.0 11.19 1.403.622-.702 1.243-1.403 2.487-2.105h23.623c2.486-2.105 5.595-4.912 9.325-7.719 1.243 2.105 1.865 3.509 2.487 5.614h13.054c1.865 1.404 3.109 2.105 4.974 2.807 1.864-.702 3.73-1.403 5.595-2.807h13.054c1.244.702 1.866 1.404 2.487 2.105 2.487-2.807 7.46-2.105 10.568-4.21 1.244-.702 4.352.0 6.217.0 1.243.702 1.865 1.404 2.487 2.105 4.351 1.404 7.459.0 11.189-1.403.622.702 1.244 1.403 2.487 2.105l3.73-2.105h16.163c1.244.702 1.865 1.403 3.109 2.105 3.108.702 4.351-1.403 6.838-2.105h19.272c.621.702 1.865 1.403 3.108 2.105 1.243-.702 1.865-1.403 3.73-2.105h6.838c1.243.702 1.865 1.403 2.487 2.105 1.243-.702 2.486-1.403 3.108-2.105 4.973 2.807 4.973 2.807 9.947.0h6.216l3.73-2.105c1.244.702 1.865 1.404 2.487 2.105h13.055c1.243-.702 3.108-1.403 4.973-2.807 1.243.702 3.109 1.403 5.595 2.807h5.595c2.487.702 3.73 3.509 7.46 2.105.622-.702 1.243-2.105 1.865-3.509 3.73-1.403 7.46.0 10.568-.702 1.865.702 3.109 2.105 4.352 2.807 1.865-.702 3.73-1.404 4.973-2.105.622.0.622-.702 1.244-.702h4.973c1.865.0 4.351.0 4.351.702 3.109 3.509 9.947.0 12.434 4.21 2.486-.702 1.243-2.807 2.486-3.509 2.487-1.403 4.974-.702 7.46-.702l3.73-2.105h3.73l1.865 4.21c.622.0.622.0 1.244.702.621-1.403 1.243-2.807 2.486-4.21h7.46c1.243.702 1.865 1.403 2.487 2.105l3.73-2.105h9.946c1.244.702 3.109 2.105 4.352 2.807.622 2.105 1.243 4.21 1.865 7.017 3.108-2.807 7.46-3.509 4.973-7.719h17.407c1.243-.702 2.486-1.403 4.351-2.105h9.325c.622.702 1.865 1.403 3.109 2.105 1.243-.702 1.865-1.403 3.108-2.105h6.217c1.865-.702 3.108-2.105 4.973-2.807 1.865 1.404 3.73 2.105 4.973 2.807h51.598l3.73-2.105c4.352.0 6.838 4.21 13.055 2.105.622.0 1.865-.702 3.108-2.105h16.164c1.243.702 5.594 2.105 6.838 2.105l3.73-2.105c1.243.702 2.487 1.403 3.108 2.105.622-.702 1.865-1.404 2.487-2.105h7.46c.621.702 1.865 1.403 2.487 2.105 1.243-.702 1.864-1.404 3.729-2.105 1.244.702 1.865 1.403 3.109 2.105h16.163l3.73 2.105h6.217c1.243.702 2.486 1.404 3.108 2.105 1.243-.702 2.487-1.404 4.352-2.807 1.865.702 3.73 1.403 6.216 2.807h8.703c.622-.702 1.865-1.403 3.109-2.105 6.838.0 8.081.702 17.406 4.912 1.865-2.105 3.73-3.509 6.217-5.614 4.351 1.403 8.703 3.509 13.055 4.912 3.108-1.403 6.216-2.807 10.568-4.21h5.595l3.73 2.105c.622-.702 1.865-1.403 2.487-2.105h9.946c.622.0 1.865.702 3.109 2.105h9.325c.621-.702 1.865-1.403 3.108-2.105h6.216c1.865.702 3.109 3.509 7.46 1.404l2.487-1.404c.622.702 1.243 1.404 2.487 2.105 8.703.702 17.406.0 26.731.702.622.702 1.243 1.403 2.487 2.105 1.243-.702 1.865-1.404 3.725-2.105h10.57c1.25 1.403 2.49 3.509 3.73 4.21h8.08c2.49.702 3.11 2.807 5.6 2.105v3.509c-1.24.702-1.87 1.403-3.11 2.807 1.24.702 1.87 2.105 3.11 2.807.0.702.0 1.403-.62 2.105-4.35 4.21-6.22-2.105-9.33-1.403-3.11.0-4.35 2.105-6.21 3.508 1.86 2.105 4.35.702 6.83 1.404 2.49.0 3.73 2.105 6.84 2.807 1.87.0 3.73 2.105 5.6 3.509v5.614c-1.25.0-3.11.702-4.35.702-1.25-.702-2.49-1.403-3.73-2.807-1.25 1.403-3.11 2.105-4.36 3.509 1.87 2.105 4.98.702 6.84 1.403 2.49.702 4.35 2.105 6.22 2.807 1.86-.702 3.11-1.403 4.35-2.807 1.24.702 3.11 1.403 4.97 2.807 1.87-.702 3.11-2.105 4.98-2.807 1.24.702 2.48 1.403 3.73 2.807l5.59-2.105c1.87.702 3.73 1.403 6.22 2.807 1.86-2.105 3.11-4.21 4.97-7.017 3.11 2.105 3.73 2.807 4.98 3.509 2.48.702 5.59-.702 7.46.702-1.87 3.509-8.71-.702-10.57 3.509-4.35.702-7.46 2.807-9.95 4.912-2.49.0-4.97.702-7.46.702-.62 1.403-1.24 2.807-2.49 4.912-1.86-2.807-3.1-5.614-6.83-7.017-1.25 1.403-3.11 2.105-4.36 3.509 3.73 1.403 2.49 5.614 8.09 7.719-4.98.702-8.09.702-11.19 1.403 1.24 2.807 4.97 3.509 6.83 6.316h13.68c1.24.702 1.87 1.403 3.11 2.105 1.24-.702 3.11-1.404 4.97-2.105 1.25.702 3.11 1.403 4.98 2.105.62-.702 1.86-1.404 3.1-2.105 1.87 1.403 5.6 2.807 4.98 5.614-1.87.702-4.35 1.403-6.22 2.105v2.807c-1.86.702-4.35 1.403-7.46 2.807 8.08 2.105 15.54.0 22.38 1.403.62.702 1.87 1.404 2.49 2.105 3.73.0 7.46.0 10.57.702 1.86 2.105 1.24 4.21.62 6.315-3.11.0-5.6.702-8.71.702-2.48 3.509 1.25 4.211 3.11 5.614.62.0.62.702 1.25.702h22.38l3.73-2.106c.62.702 1.86 1.404 2.48 2.106 3.73-.702 6.84-2.807 11.19-1.404 3.11 2.807-1.24 4.211-2.48 5.614l-4.98 5.614h-6.21c-1.25.701-2.49 1.403-4.36 2.807l-5.59-2.106c-2.49.702-4.97 2.106-8.08 2.807 3.73 2.106 7.46.702 12.43 1.404 2.49 2.105 5.6 4.912 8.7 7.719 2.49-.702 4.36-1.404 6.84-2.105.62.701 2.49 1.403 4.35 2.105 1.25-.702 3.11-1.404 4.98-2.105.62.701 1.86 1.403 3.11 2.105h8.08c-1.87 2.806-3.11 4.912-4.98 7.017h-3.73c-2.48 1.403-.62 3.508-1.24 5.614 3.73 2.806 6.84 7.017 14.92 7.017-4.35 1.403-4.97 4.21-8.08 4.21.62-1.403-.62-2.105-2.49-2.105h-8.08c-2.49-.702-4.35-1.403-5.59-2.105-.63-1.404.0-3.509-3.11-1.404.62.702 1.86 1.404 3.11 1.404.0 2.105-1.87 2.105-4.36 2.105-.62.0-1.86.702-2.48 1.403.62.702.62 2.106.62 2.807 3.73 1.404 5.59.0 7.46-1.403 2.49.702 3.11 2.807 6.84 2.105 1.24-.702 2.48-1.403 3.11-2.105h4.97v5.614c1.86 1.403 4.35 2.105 6.22.0-1.25-.702-1.87-1.404-3.11-2.807 3.73-2.105 7.46.0 10.57-1.404 1.86 2.105 5.59 2.105 8.08 3.509-1.25 4.21 3.73 7.017 4.35 11.227 1.86-1.403 3.11-2.105 4.35-2.806 3.11 2.806-.62 6.315 3.11 9.824.62-1.404 1.24-2.106 1.86-2.807s.63-1.404 1.25-2.105c2.48 3.508 4.97 7.719 8.08 11.227-1.25.702-1.87 1.403-2.49 2.105 1.25.702 1.87 1.404 3.11 2.807v4.912c-1.24.702-1.86 1.404-3.11 2.807v4.912c1.25.702 2.49 2.105 3.11 2.807v2.807c-1.86.701-3.73.702-5.59 1.403l-1.87 4.211h-3.73c-2.49 2.105-4.97 4.21-8.08 6.315v2.105c-4.35.702-7.46 4.211-11.19 5.614-3.11 1.403-6.84 2.807-10.57 3.509-1.24 1.403-1.86 3.508-3.73 6.315.62.702 2.49 1.403 4.35 2.807 1.25-.702 1.87-1.403 3.11-2.105 3.11.0 1.87 2.105 1.87 3.508-3.11 2.106-7.46.702-10.57 1.404-2.49-.702-4.35-4.21-8.08-1.404-.63 1.404 3.73 4.211 11.81 7.719 4.35 1.404 8.7 3.509 13.05 4.912-.62 2.105 1.25 4.211-1.24 5.614-1.24-.702-2.49-1.403-3.11-2.105-1.86.702-2.49 2.807-7.46 3.509-1.24.701-.62-.702.62-1.404 3.73-.702.62-1.403.62-2.105-3.1.0-6.21-1.403-8.7.702 1.24 1.403 3.11 2.105 6.84 2.105 3.11-.702 3.11.702 3.73.702 2.49.701 4.97.701 8.7.701l-3.11 3.509c-1.24 2.807 5.6 4.21 2.49 7.719-1.24.0-2.49.0-4.35.701-1.24-1.403-1.87-3.508-3.73-4.912-1.24 2.106-1.87 3.509-2.49 4.912h-9.94c-1.87-.701-3.73-1.403-6.22-2.806-3.73 2.806-6.84 5.613-8.7 7.718-4.36.702-7.46-.701-9.33.702 1.24 3.509 6.84 3.509 9.33 4.912v2.105c-.63.702-1.25 1.404-2.49 2.106.62 1.403 1.86 2.806 2.49 4.21.62 1.403 1.86 2.105 3.1 4.21-1.86.0-3.1.702-4.97.702-.62-1.403-1.24-2.105-1.86-3.509-4.98-.701-8.71-5.613-16.17-2.105 2.49 2.807 5.6 3.509 9.33 4.21s3.11 4.912 5.59 6.316h6.22c1.24-.702 2.49-1.403 3.73-2.807.62 1.404.62 2.105 1.24 3.509-3.11 1.403-5.59 2.105-9.32 3.508h-14.92c-.62-.701-1.87-1.403-3.11-2.105-1.87 1.404-4.97 2.105-8.08 2.807-.62 1.403-.62 2.105-1.25 3.509-1.24.0-2.48.701-4.35.701-1.86 1.404-3.73 2.807-6.21 4.211h-16.17c-1.24.701-1.86 1.403-3.73 2.807h-55.33c-1.24.701-1.86 1.403-3.73 2.806h-13.05c-1.244.702-1.865 1.404-3.109 2.106-1.865-.702-3.108-2.106-4.973-2.807-1.865 1.403-3.73 2.105-5.595 2.807H942.44c-.621.701-1.865 1.403-2.487 2.105H916.33c-.621-.702-1.865-1.404-2.486-2.105-1.244.701-1.865 1.403-3.73 2.105h-22.38l-3.73 2.105c-1.244-.702-2.487-1.403-3.108-2.105h-6.217c-1.243.702-2.487 1.403-4.352 2.807-1.865-.702-3.73-1.404-6.216-2.106-.622.0-1.244.702-3.109 1.404h-18.65l-3.729 2.105c-1.244-.702-1.865-1.403-3.109-2.105h-6.216c-1.244.702-2.487 1.403-3.109 2.105h-39.164c-.622.702-1.244 1.403-2.487 1.403-.622.0-.622.702-1.244.702h-32.326c-1.243.702-1.865 1.404-3.108 2.105-1.244-.701-1.865-1.403-3.73-2.105-.622.702-1.865 1.404-3.73 2.105h-58.436c-1.244.702-1.865 1.404-3.109 2.106l-3.73-2.106H662.07l-3.729 2.106h-6.217l-3.73 2.105c-.622-.702-1.865-1.404-2.487-2.105h-6.838c-1.244.701-1.865 1.403-3.109 2.105h-26.109c-1.243.701-1.865 1.403-3.108 2.105h-35.435l-3.73 2.105c-1.244-.702-2.487-1.404-3.109-2.105h-16.163c-.621.701-1.865 1.403-3.108 2.105h-26.11c-1.243.702-1.865 1.403-3.108 2.105-1.244-.702-1.865-1.403-3.73-2.105h-9.947c-.622.702-1.865 1.403-3.108 2.105-1.244-.702-1.865-1.403-3.109-2.105h-6.216l-3.73 2.105h-35.435c-.622.702-1.865 1.404-2.486 1.404s-.622.701-1.244.701h-32.326c-1.244.702-1.865 1.404-3.109 2.105h-29.218c-1.243.702-1.865 1.404-3.108 2.106-1.243-.702-1.865-1.404-3.73-2.106-1.243.702-1.865 1.404-3.108 2.106-1.243-.702-2.487-1.404-3.108-2.106-.622.702-1.244 1.404-3.109 2.106-3.108.0-6.838.0-10.568.701-.622.702-1.243 1.404-3.108 2.106h-32.327c-1.243.701-1.865 1.403-3.108 2.105h-18.65c-1.865.701-3.73 2.105-5.595 2.806h-1.865l-3.73-2.105c-1.243.702-2.487 1.404-3.108 2.105h-19.272c-1.243.702-2.486 1.404-4.351 2.807-1.865-.701-3.73-1.403-6.217-2.807-.622.702-1.243 1.404-3.108 2.106H231.88c-1.243.701-1.865 1.403-3.108 2.105h-16.785c-1.243-.702-1.865-1.404-2.487-2.105h-19.271c-2.487-1.404-4.974-3.509-6.839-4.912-1.865.0-4.973.701-6.216.0-6.217-3.509-14.92-3.509-19.272-9.123-1.243.702-2.487 1.404-3.73 2.807-.621-.701-1.243-1.403-3.108-2.105h-9.947c-1.865-1.403-3.729-2.807-4.973-3.509v-4.912c-1.865-.701-3.73-.701-6.216-1.403.0-.702-.622-2.105-.622-3.509-2.487-.701-4.973-2.105-8.703-3.508h-4.974l-3.73-2.105h-6.216c-.622-.702-1.244-1.404-3.109-2.106h-9.946c-3.73-2.807-1.243-5.613-1.865-8.42-1.243-.702-1.865-1.404-3.108-2.807-.622-1.403 1.243-3.509-1.243-5.614-1.865 2.105-1.865 2.105-2.487 8.421-1.865.0-3.73.702-4.973.702-3.73-2.807.0-4.211 1.865-5.614-2.487-2.105-5.595-.702-9.946-2.105-3.108-2.106-4.973-6.316-7.46-10.526-1.243.0-3.108-.702-4.973-.702.0-.702-.622-2.105-1.243-3.509-3.108-2.806-5.595-.701-7.46 1.404-2.487.0-4.973.702-8.082-.702.0-2.105-.622-3.508-.622-5.614-2.487-2.105-5.595.0-8.703-1.403-1.865-1.403-4.352-3.509-6.838-4.912v-4.912c2.487-2.105 5.595-3.509 8.081-5.614 1.865.702 2.487 2.807 4.973 2.105.622 1.404.0 3.509 3.108 1.404-.622-.702-1.865-1.404-3.108-1.404v-3.508c-.622-.702-1.865-1.404-2.487-1.404h-5.595c-3.108-2.105-.622-4.21-1.865-6.315-8.082-1.404-11.812-6.316-15.542-12.631v-8.421c-2.487-1.403-4.973-2.807-6.838-3.508v-6.316c.622-.701 1.243-1.403 2.487-1.403 1.865-2.807.0-5.614 1.243-7.719-2.487-.702-4.352-1.404-6.839-1.404.622-1.403 1.865-2.105 2.487-3.508-.622-.702-1.243-1.404-2.487-1.404 1.243-3.508 6.217-3.508 9.325-4.912v-2.105c-3.108-2.807-5.595-.702-8.081.702-1.243-.702-3.108-2.105-4.352-2.807 1.243-2.105 3.108-4.21 4.352-6.316 3.73-.701 4.973 1.404 6.838 2.106 1.243-1.404 3.108-2.105 4.352-3.509 1.243-2.105-1.865-3.509-3.108-4.912-1.243-3.509 7.46-5.614 3.108-9.122 1.243-.702 1.865-1.404 1.865-1.404 1.865.702 3.73 2.807 6.839 2.105l1.865 4.211c1.243.0 2.487.0 4.352.701l1.865-4.21c3.73.0 4.352.0 8.081 1.404.622-.702 1.243-1.404 3.108-2.106 3.108 3.509 6.217 6.316 9.325 9.825 3.73-2.807 1.243-5.614 1.865-7.719 1.865-2.807 6.217-3.509 9.947-4.913-1.243-.701-1.865-1.403-3.108-2.105-1.243-2.105 1.243-3.508 3.108-4.912-1.243-.701-1.865-2.105-3.108-2.807 1.865.0 3.73-.701 4.973-.701 1.243 1.403 1.865 3.508 3.108 4.912 1.865-1.404 3.108-2.105 4.973-3.509v-7.017c.622-9.824-2.487-10.526-1.865-11.929h1.243c1.865-1.404 3.73-2.807 5.595-3.509-.622-1.403-1.243-2.105-1.865-3.508-1.865.0-3.108-.001-4.973.701v6.316zM310.21 35.087c.621 2.105.621 3.509 3.108 2.105-.622-.702-1.865-1.404-2.487-.702-.622-2.105-.622-3.508-3.108-2.105.621.702 1.865 1.403 2.487.702zM39.787 207.008c.622.0 2.487-.702 2.487-.702.622-1.403-1.243-1.403-2.487-1.403.0-2.106-3.108-2.807-4.352-4.912-1.865 2.105-3.73 4.21-4.973 6.315-.622.702.622 2.105.622 2.807l5.595-2.105c.622.702.622 2.105 1.243 2.105 1.865.0 1.865-.702 1.865-2.105zM154.172 59.647h6.217c0-1.403.0-2.807-.622-4.21-3.108 1.403-5.595 2.807-4.973 4.21-2.487.702-4.973.702-3.108 2.105 1.243-.702 1.865-1.403 2.486-2.105zm381.079-26.665c.622 2.105.622 3.509 3.109 2.105-.622-.702-1.865-1.404-3.109-2.105.0.0-.621-.702-1.243-2.105h-16.785c-1.243-.702-1.865-1.404-3.108-2.105-1.865 1.403-3.73 2.105-8.082 4.912 12.433.0 21.137.0 29.218-.702zm-289.694 9.122c-3.73-2.807-8.704.0-12.434-2.105-4.973-2.807-5.595-2.807-7.46-.702l5.595 4.21c1.865 2.807-1.865 6.316 3.109 9.122.621-2.807 1.243-4.912 1.243-6.315 4.352-1.403 6.838-2.807 9.947-4.21zM214.473 52.63c1.244-1.403 4.352-2.105 4.974-4.21-.622-1.403-.622-1.403-8.703-.702-.622-.702-1.244-1.403-1.865-1.403-2.487 2.105-4.974 4.21-8.082 6.315.0.0.0.702.622.702 4.351-.702 8.703-.702 13.054-.702zm269.802-17.543c1.243.0 1.865.702 3.108.702h14.299c.621.0.621-.702 1.243-.702-1.243-2.105-3.108-4.21-4.352-6.315h-3.73c-1.865 1.403-3.73 3.509-6.216 4.912-1.865.0-4.974-1.403-4.352 1.404zM167.227 64.559c-.621-1.404 1.244-3.509-1.243-5.614-1.865 1.403-3.108 2.807-4.973 3.509s-3.73 1.403-4.974 2.105c2.487 2.105 4.974 4.21 6.839 6.316 1.243-1.403 2.486-3.509 4.351-6.315zm162.876-25.262c4.352 1.404 8.703 1.404 13.055.0-.622-1.403-.622-2.105-1.244-3.509-4.351.0-8.703-1.404-12.433.702.622 1.403.622 2.105.622 2.807zM138.009 74.383c.622.702 1.244 2.105 2.487 3.509.0.0-5.595 2.105-5.595 2.807 2.486 1.403 4.973.702 8.081.702.622-2.105 8.082-3.509 2.487-7.017-1.865.0-4.973-1.403-7.46.0zm474.328-45.612c1.865 2.807.001 4.912 2.487 6.316 2.487-.702 3.73-2.105 5.595-3.509.0-.702-.621-2.105-1.243-2.807h-6.839zM49.733 220.34c2.487.702 3.108 2.807 6.217 2.807.0-1.403.622-2.105.622-3.508-2.487-.702-3.108-2.807-6.217-2.807.0 1.403-.622 2.105-.622 3.508zm192.094-163.5c-3.109.702-4.352.702-6.217.702.622 1.403.622 2.807 1.244 4.21 2.486.0 3.729-.702 5.594-.702-.621-.702-.621-2.105-.621-4.21zm321.399-28.069c-1.243 3.509-4.351 3.509-4.351 6.316 1.865 1.403 3.729 1.404 6.216-.702-.622-.702-.621-2.105-1.865-5.614zM38.543 221.042c2.487-2.105 2.487-4.912.0-7.017-3.108 2.807-3.108 4.912.0 7.017zM302.128 37.893c-2.487 1.403-2.487 3.509.0 4.912 2.487-1.403 2.487-2.807.0-4.912zm233.123 8.421c-2.486-1.403-4.351-1.403-6.838.0 2.487 2.105 4.973 2.105 6.838.0zM44.76 199.991c2.487-1.404 2.487-3.509.0-4.912-2.487 1.403-2.487 3.508.0 4.912zM625.392 37.893c2.487-1.403 2.487-3.509.0-4.912-2.486 2.105-2.486 3.509.0 4.912zm-37.299-4.912h1.865c0-1.403.621-2.105.621-3.509.0.0-.622-.702-1.243-.702s-1.865.702-1.865.702c0 1.403.622 2.807.622 3.509zM80.816 90.522c-1.865 2.105-3.108 3.508.622 4.912 1.243-2.105 1.865-3.509-.622-4.912zM47.868 211.92c2.487-1.404 2.487-3.509.0-4.912-1.865 1.403-1.865 3.508.0 4.912zM938.089 30.876c-2.487 1.403-2.487 3.509.0 4.912 2.486-1.403 2.486-3.509.0-4.912zM67.761 159.291c1.865-2.105 3.108-3.509-.622-4.912-1.243 2.105-1.865 3.508.622 4.912zM18.65 221.042c-1.865 2.105-3.108 3.509.622 4.912 1.243-1.403 1.865-2.807-.622-4.912zM297.776 79.295v1.403c1.244.0 3.109.0 4.352.702.622.0 1.243-.702 1.243-.702.0-.702-.621-1.403-1.243-1.403-1.243-.702-2.487-.702-4.352.0zm64.653-7.017c2.487 1.403 4.352 1.403 6.839.0-2.487-1.403-4.352-1.403-6.839.0zm49.733 1.403h1.865c0-1.403.622-2.105.622-3.509.0.0-.622-.702-1.244-.702s-1.865.702-1.865.702c0 1.404.622 2.105.622 3.509zm-300.263-5.614c-.621.0-.622-.702-1.243-.702s-1.243.702-2.487.702c.622.0.622.702 1.244.702s1.865-.702 2.486-.702zm253.017 8.421c-.622.0-1.243.702-1.865.702.622.0.622.702 1.243.702s1.243-.702 2.487-.702c-1.244.0-1.243.0-1.865-.702zM62.166 105.96l-1.243-1.403c-.622.0-1.243.701-1.243.701.0.702.621 1.404 1.243 1.404s1.243.0 1.243-.702zm4.352 23.157 1.243 1.403c.622.0 1.243-.701 1.243-.701.0-.702-.622-1.404-1.243-1.404-.622.702-.622.702-1.243.702zm-1.865 4.21c-.622.0-1.243.702-1.865.702.622.0.621.702 1.243.702s1.244-.702 2.487-.702c-.622.0-1.243.0-1.865-.702zM1104.69 287.706c.63.0.63-.702 1.25-.702-.62.0-1.25-.702-2.49-.702.0.0-.62.702-1.24.702 1.24.0 1.86.0 2.48.702zm65.9-117.188-1.24-1.403c-.62.0-1.25.702-1.25.702.0.701.63 1.403 1.25 1.403s1.24-.702 1.24-.702zM315.804 32.981c.622.0.622-.702 1.244-.702-.622.0-1.243-.702-2.487-.702.0.0-.621.702-1.243.702 1.243.0 1.865.702 2.486.702zm79.573 1.404c-.621.0-.621-.702-1.243-.702s-1.243.702-2.487.702c.622.0.622.702 1.244.702 1.243.0 1.865.0 2.486-.702zm485.519.702-1.244-1.404c-.622.0-1.243.702-1.243.702.0.702.621 1.403 1.243 1.403.0.0.622-.702 1.244-.702zm8.703.0c.622.0.621-.702 1.243-.702-.622.0-1.243-.702-2.486-.702.0.0-.622.702-1.244.702 1.243.702 1.865.702 2.487.702zm-290.938.702c-.622.0-.622.702-1.243.702.621.0 1.243.702 2.486.702.0.0.622-.702 1.244-.702-1.244.0-1.866.0-2.487-.702zM276.64 37.893c-.622.0-1.244.702-1.244.702.0.702.622 1.404 1.244 1.404s1.243-.702 1.243-.702c-.622.0-1.243-.702-1.243-1.403zm-54.085 3.509c-.622.0-.621-.702-1.243-.702s-1.243.702-2.487.702c.622.0.622.702 1.244.702 1.243.0 1.864.0 2.486-.702zm446.354 2.807-1.244-1.403c-.621.0-1.243.702-1.243.702.0.702.622 1.404 1.243 1.404.0.0.622.0 1.244-.702zm341.911.0-1.24-1.403c-.62.0-1.24.702-1.24.702.0.702.62 1.404 1.24 1.404s1.24.0 1.24-.702zM824.327 2.105c5.595.702 9.946-.702 16.163 1.403-12.433 1.403-34.813 2.105-59.058.702-.622-.702-1.243-1.403-2.487-1.403l-3.73 2.105h-61.544l-3.73 2.105h-6.217c-1.865-1.403-3.108-2.105-4.973-3.509 3.73-1.403 6.838-2.807 10.568-3.509 1.244.702 2.487 1.404 4.352 2.807h13.055c.621-.702 1.865-1.403 3.108-2.105 1.243.702 2.487 1.403 3.108 2.105h6.217l3.73-2.105h58.436c.622.702 1.865 1.403 3.109 2.105.621-.702 1.865-1.404 3.108-1.404C819.353.0 819.354.0 824.327 2.105zm61.54 4.912-3.73-2.105-6.217 2.105c-.622-.702-1.243-1.403-2.487-1.403l-4.973 2.105c-3.73-1.403-6.838-2.105-9.946-3.509v-.702c.621.0.621-.702 1.243-.702h42.273c1.243.702 1.865 1.403 3.108 2.105H935.6c-1.865 2.105-3.109 4.21-4.974 5.614-3.108-1.403-4.351-2.105-6.838-3.509h-28.596c-1.244-.702-2.487-1.403-4.352-2.807-.622.702-3.108 2.105-4.973 2.807zM454.433 8.42c-2.486.702-4.351 2.105-6.216 2.807-1.244-2.105-4.974-1.403-8.082-1.403l-5.595 2.807c-1.865-.702-3.73-2.105-6.839-2.807-1.243.702-3.108 1.403-4.973 2.105-1.243-.702-3.108-1.403-4.973-2.807-1.865.702-3.108 2.105-4.973 2.807-2.487.0-4.973.702-8.082-1.403l5.595-2.105c2.487-2.105 6.217-1.403 9.947-1.403h11.19 11.189c3.73.702 7.461-.702 11.812 1.403zm606.127 29.474c-.62 2.105-3.11 3.509-6.22 4.912-2.49.702-4.35 1.403-7.46 2.807-3.73-1.403-8.08-3.509-12.43-5.614v-5.614c1.24-.702 1.24-.702 8.08 3.509h18.03zM953.008 8.422V5.615c4.351-1.403 9.325.0 13.676-.702 1.244.702 2.487 2.105 3.731 2.807 1.243-.702 2.486-1.403 3.108-2.105h3.108c1.244 1.403 3.108 2.105 4.352 3.509-.622.702-1.244 1.403-1.865 1.403H953.63c.621-.702-.001-1.403-.622-2.105zM695.641 3.509c-1.865.702-1.865 1.403-2.487 1.403h-42.273c-.622.0-.622-.702-1.243-.702v-.702c4.351-1.403 27.975-1.403 46.003.0zm353.109 10.526c-2.49-2.105-4.36-2.807-6.22-4.21-1.87.0-3.11-.702-4.97-.702.62-2.105 3.1-2.807 4.97-4.912 1.86 2.105 3.73 3.509 5.59 6.315 1.25-2.105 1.87-3.509 2.49-5.614h4.35c.62 1.403.62 2.105 1.25 3.509-1.87 2.105-4.36 3.509-7.46 5.614z"/><path d="M626.636 2.807h18.65c.621.0.621.702 1.243.702-3.108 2.807-6.838.702-10.568 1.403-2.487.702-4.352 3.509-8.703 1.404.0-.702-.622-1.403-.622-3.509zm-30.459 2.104c3.73-4.21 6.838-2.105 10.568-2.807.0 1.403.622 2.807.622 3.509-6.217 4.21-6.217-2.105-11.19-.702zm22.377 2.107h-3.73c-.621-1.403-.621-2.807-1.243-3.509 3.108-1.403 6.217-1.403 9.325-.702.0 2.105-3.108 2.807-4.352 4.21zm331.348-.702c-2.487.702-4.352 1.403-8.704 3.509 2.487.0 1.244.0-.621.0.0-1.403-.622-2.807-.622-3.509 3.73-2.105 6.217-.702 9.947.0zm-484.275 5.612c-3.109-1.403-5.595-2.105-9.325-3.509 4.973-1.403 8.703-1.403 13.055.0.621 1.403-3.109 2.105-3.73 3.509zM41.653 141.046c3.73.0 4.973-.001 6.217-.702.622.701 1.243.702 1.243.702.0 2.105.0 3.508-.622 5.613l-2.486.702c-.622-1.403-1.865-3.509-4.352-6.315zm-1.867 2.806c-3.108 2.105-6.838 2.105-9.947.0 3.73-2.105 6.839-2.105 9.947.0zm16.788-56.137c-.622 2.807-1.243 4.21-1.243 5.614-2.487-1.403-3.73-2.807-6.217-4.21 2.487-.702 4.352-.702 7.46-1.404z"/><path d="M396.618 14.034c-.622-3.509-1.243-4.21-1.243-5.614 2.487-1.403 4.352-1.403 6.217-.702-.622 2.105-3.731 2.807-4.974 6.315zM995.901 8.42c-4.352 2.105-7.46 2.105-9.947.702 1.865-2.105 1.865-2.105 9.947-.702zM313.32 11.931l8.082 1.403c-2.487 1.403-3.73 3.509-6.838 3.509-.622-1.404-.622-2.807-1.244-4.912zm62.164-.704c-1.244.0-3.109.702-4.352.702-.622.0-1.243-.702-1.243-1.403.0.0.621-.702 1.243-.702 1.243.0 3.108.0 4.352.702v.702zM1001.5 8.419c2.48-1.403 4.35-1.403 6.83.0-2.48 1.403-4.35 1.403-6.83.0zm-491.735.0c-2.487 1.403-4.352 1.403-6.838.0 2.486-1.403 4.351-1.403 6.838.0zm668.285 256.832c-2.49 1.404-4.35 1.404-6.22.0 1.25-2.105 3.11-1.403 6.22.0zM597.416 4.911c-1.865 2.105-1.865 2.105-6.217 1.404 1.244-2.807 4.352-1.404 6.217-1.404zm-23 2.105c-1.243.0-3.108.702-4.351.702-.622.0-1.244-.702-1.244-1.403.0.0.622-.702 1.244-.702 1.243.0 3.108.0 4.351.702.0-.702.0.0.0.702zm-44.759-1.401c1.244.0 3.109-.702 4.352-.702.622.0 1.243.702 1.243 1.404.0.0-.621.702-1.243.702-1.243.0-3.108.0-4.352-.702v-.702zm57.193-2.809c0 1.403.622 2.105.622 2.807.0.0-1.244.702-1.865.702l-1.244-.702c0-1.403.622-2.105.622-3.509.622.702 1.243.702 1.865.702zm479.92 31.579c2.49-1.403 4.35-1.403 6.22.0-1.25 2.105-3.11 1.403-6.22.0zm-9.32-2.105c2.48-1.403 4.35-1.403 6.83.0-2.48 1.404-4.97 1.404-6.83.0zm30.46 43.506c-.62.0-.62-.702-1.25-.702.63.0 1.25-.702 2.49-.702.0.0.62.702 1.24.702-1.24.0-1.86.702-2.48.702zm9.33 26.666c.62.0 1.24.702 1.86.702-.62.0-.62.702-1.24.702s-1.25-.702-2.49-.702c1.24.0 1.87.0 1.87-.702zm54.08 36.49-1.25 1.403c-.62.0-1.24-.702-1.24-.702.0-.701.62-1.403 1.24-1.403.63.0.63.0 1.25.702zm47.87 49.118 1.24 1.403s-.62.702-1.24.702l-1.25-1.404s.63-.701 1.25-.701zM22.38 171.221c-.622.0-1.244-.702-1.865-.702.622.0.622-.702 1.243-.702s1.244.702 2.487.702c-1.243.0-1.243.0-1.865.702zM546.443 7.016c-.622.0-.622-.702-1.244-.702.622.0 1.244-.702 2.487-.702.0.0.621.702 1.243.702-1.243.0-1.865.0-2.486.702zm-50.976 2.107c-.621.0-1.243-.702-1.864-.702.621.0.621-.702 1.243-.702s1.243.702 2.486.702c-1.243.0-1.865.702-1.865.702zm-138.63 1.402c.622.0.622-.702 1.243-.702l1.243 1.403s-.621.702-1.243.702c-.621-.702-1.243-.702-1.243-1.403zm34.807.0-1.244 1.403c-.621.0-1.243-.702-1.243-.702.0-.702.622-1.403 1.243-1.403s.622.0 1.244.702zm635.346 11.227c1.24-1.403 1.86-2.105 3.1-2.105 1.87 1.403-.62 1.403-3.1 2.105zm13.67 5.613c-.62.0-1.24.702-2.49.702.0.0-.62-.702-1.24-.702.62.0 1.24-.702 2.49-.702.62.0 1.24.702 1.24.702zm11.81 7.72c-.62.0-1.24-.702-1.86-.702.62.0.62-.702 1.24-.702s1.25.702 2.49.702c-.62.702-1.24.702-1.87.702zm6.84 3.511c1.25-1.403 1.87-2.105 3.11-2.105 2.49 1.404-.62 1.404-3.11 2.105zM39.789 204.903v2.106h-3.108c0-1.404 1.243-2.106 3.108-2.106z"/></svg>